<svg id="Capa_1" data-name="Capa 1" xmlns="http://www.w3.org/2000/svg" viewBox="0 0 1963.88 1964.43"><defs><style>.cls-1{fill:#006382;}.cls-2{fill:#35bacb;}</style></defs><path class="cls-1" d="M936.3,397.25C642.82,458.13,444.05,696.81,398.15,936.62c5.05,1.9,10.31,1,15.47,1q194.82.11,389.64.1c17.14,0,17,0,17,17.57q0,127.53.28,255c0,12.15.12,12.14-11.38,12.14l-682.26-.26a88.87,88.87,0,0,0-9.38.06c-7.1.75-9.78-1.87-10.78-9.34-4.06-30.51-6.89-61.17-8-91.83-3-85.2,4-169.57,22.37-253,34.55-156.61,104.18-295.87,206.56-418.76,75.77-91,165.62-165.37,268.69-224a974.56,974.56,0,0,1,268.28-104c97.24-22,195.75-28.06,295.15-20.44q176.33,13.5,336.25,88.75,199.13,93.3,340,262.18a1016.44,1016.44,0,0,1,125.78,191.58,23.83,23.83,0,0,1,1.86,4.25c.26.92-.07,2-.18,3.55-3.38,2.79-7.67,1.29-11.53,1.29-101.19.11-202.38-.11-303.57.39-11.76.05-18.5-3.93-25.82-13-57.4-70.87-126-128.55-206.2-172.31-54.66-29.84-112.15-52.36-172.84-66.56-6-1.42-12.12-2.63-18.89-4.09-3.47,6.17-2,12.48-2,18.38q-.06,248.77.09,497.57.06,361.44.07,722.88c0,2.61,0,5.21,0,7.82.07,4.33-1.52,7-6.35,6.76-2.6-.12-5.22,0-7.82,0q-128.33,0-256.63.06c-13.84,0-14-.07-14-15.17q.09-249.55.26-499.12.07-363,0-726C938.22,406.11,939.31,401.83,936.3,397.25Z" transform="translate(-98.06 -97.79)"/><path class="cls-2" d="M198.34,1509.44H313.67c62.07,0,124.17,1.21,186.18-.69,21-.64,33.51,5.29,46.81,21.41,85.06,103.12,192.47,174,319.34,215.37a611,611,0,0,0,135.57,28.1c31.65,2.82,63.25,6.75,95,5.56,73.55-2.77,145.5-14.19,215.21-39.21,56.17-20.17,109.29-46,158.66-79.34,64.85-43.86,121.18-96.68,168.12-159.56,50.6-67.78,89.16-141.46,112.37-222.95,4-14,8.12-27.91,11.52-42,2.9-12,1.4-13.63-10.72-13.87-9.39-.19-18.78-.12-28.17-.12L1359,1222c-2.61,0-5.23-.14-7.82.08-7.43.65-10.15-2.55-9.89-10,.71-20.27,1.12-40.53.83-60.85-.92-65.18-.68-130.37-.85-195.55,0-17.86,0-18,18.21-18q328.57,0,657.16,0c8.86,0,17.73.05,26.59-.14,7.73-.15,10.62,3.27,11.58,11.14,7.16,58.61,8,117.45,6.42,176.34-2.3,83.7-17.53,165.31-41.8,245.25-32.07,105.58-82.45,202.21-146.89,291.37-33.59,46.48-72.12,88.88-113.8,128.59a973.21,973.21,0,0,1-157.61,122.59c-59.83,37.22-122.59,68.31-189,92a1005.4,1005.4,0,0,1-159.49,42.53c-75.69,13.68-152.21,17.29-228.85,13a962.93,962.93,0,0,1-237-43.48,982.75,982.75,0,0,1-252.25-121c-80.73-54-151.45-118.92-213.26-193.62-47.69-57.63-86.6-121-121.37-187.09C199.25,1514,199.13,1512.43,198.34,1509.44Z" transform="translate(-98.06 -97.79)"/></svg>